# xmcd
#
# Track frame offsets:
#	150
#	7550
#	22045
#	34915
#	53755
#	60182
#	64355
#	76035
#	87730
#	102452
#	116672
#	131595
#	144742
#	158905
#	171007
#	186387
#	200487
#	215497
#	229557
#
# Disc length: 3237 seconds
#
# Revision: 0
# Processed by: cddbd v1.5.1PL0 Copyright (c) Steve Scherf et al.
# Submitted via: dBpowerAMP V4.0
#
DISCID=040ca313
DTITLE=Leadbelly - Leadbelly Memorial Volumes 3 and 4
DYEAR=1900
DGENRE=Blues
TTITLE0=Grey Goose
TTITLE1=Red Cross Store Blues
TTITLE2=Ham And Eggs
TTITLE3=Red River, In The Pines and You Don't Miss Your Water
TTITLE4=Blind Lemon
TTITLE5=Lead Belly's Dance
TTITLE6=In The Evening When The Sun Goes Down
TTITLE7=Diggin' My Potatoes
TTITLE8=Alberta
TTITLE9=The Boll Weevil
TTITLE10=Ain't Going DownInto The Well No Mo' and Go Down Old Hannah
TTITLE11=Frankie and Albert
TTITLE12=Frankie and Albert [Part 2]
TTITLE13=Fannin Street
TTITLE14=The Burgeois Blues
TTITLE15=Looky Looky Younder and Black Betty and Yellow Woman's Door Bells
TTITLE16=Poor Howard and Green Corn
TTITLE17=The Gallis Pole
TTITLE18=De Kalb Woman
EXTD=
EXTT0=
EXTT1=
EXTT2=
EXTT3=
EXTT4=
EXTT5=
EXTT6=
EXTT7=
EXTT8=
EXTT9=
EXTT10=
EXTT11=
EXTT12=
EXTT13=
EXTT14=
EXTT15=
EXTT16=
EXTT17=
EXTT18=
PLAYORDER=
